<?xml version="1.0" encoding="UTF-8"?>
<svg id="Capa_2" data-name="Capa 2" xmlns="http://www.w3.org/2000/svg" viewBox="0 0 842.64 850.12">
  <defs>
    <style>
      .cls-1 {
        fill: #000;
        stroke-width: 0px;
      }
    </style>
  </defs>
  <g id="Capa_1-2" data-name="Capa 1">
    <g>
      <path class="cls-1" d="M733.63,365.62s23.39-80.88,34.11-152.01c6.82-46.77-1.95-80.88-42.87-113.04-40.93-33.13-125.7-15.59-168.58,8.77-42.87,24.36-356.65,181.25-356.65,181.25,0,0,244.59-206.58,333.26-256.28,88.68-49.7,174.43-41.9,236.79.97,62.36,42.88,85.75,128.63,66.26,223.15-19.49,94.52-41.9,176.38-41.9,176.38l-60.42-69.19Z"/>
      <path class="cls-1" d="M366.26,115.18s-80.88-23.39-152.02-34.11c-46.77-6.82-80.88,1.95-113.04,42.88-33.13,40.93-15.59,125.7,8.77,168.58,24.36,42.88,181.25,356.65,181.25,356.65,0,0-206.58-244.59-256.28-333.26-49.7-88.68-41.9-174.43.98-236.79C78.8,16.76,164.55-6.62,259.07,12.87c94.52,19.49,176.38,41.9,176.38,41.9l-69.18,60.42Z"/>
      <path class="cls-1" d="M109.01,484.5s-23.39,80.88-34.11,152.01c-6.82,46.77,1.95,80.88,42.87,113.04,40.93,33.13,125.7,15.59,168.58-8.77,42.87-24.36,356.65-181.25,356.65-181.25,0,0-244.59,206.58-333.26,256.28-88.68,49.7-174.43,41.9-236.79-.97C10.59,771.96-12.8,686.21,6.69,591.69c19.49-94.52,41.9-176.38,41.9-176.38l60.42,69.19Z"/>
      <path class="cls-1" d="M476.37,735.91s80.88,23.39,152.02,34.11c46.77,6.82,80.88-1.95,113.04-42.88,33.13-40.93,15.59-125.7-8.77-168.58-24.36-42.88-181.25-356.65-181.25-356.65,0,0,206.58,244.59,256.28,333.26,49.7,88.68,41.9,174.43-.98,236.79-42.88,62.36-128.63,85.75-223.15,66.26-94.52-19.49-176.38-41.9-176.38-41.9l69.18-60.42Z"/>
      <path class="cls-1" d="M474.43,417.26c0,34.11-27.29,61.39-61.39,61.39s-61.39-27.28-61.39-61.39,27.29-61.39,61.39-61.39,61.39,27.28,61.39,61.39Z"/>
    </g>
  </g>
</svg>